<svg version="1.1" id="Layer_1" xmlns="http://www.w3.org/2000/svg" xmlns:xlink="http://www.w3.org/1999/xlink" x="0px" y="0px"
	 width="100%" viewBox="0 0 712 142" enable-background="new 0 0 712 142" xml:space="preserve">
<path fill="#FFFFFF" opacity="1.000000" stroke="none" 
	d="
M563.000000,1.000000 
	C612.923706,1.000000 662.847351,1.000000 713.000000,1.000000 
	C713.000000,46.353970 713.000000,91.708328 712.623901,137.405487 
	C711.982605,136.485687 711.829224,135.187042 711.435547,133.965866 
	C704.744995,113.212914 698.018616,92.471458 691.312195,71.723595 
	C684.310669,50.062809 677.221985,28.429148 670.428589,6.703226 
	C669.327698,3.182680 668.037537,1.555051 664.168213,1.918114 
	C660.222839,2.288311 656.215698,2.000001 652.533447,2.000001 
	C637.528198,48.613930 622.646240,94.844711 607.760437,141.087463 
	C608.995178,141.816406 609.997559,142.408203 611.000000,143.000000 
	C565.645752,143.000000 520.291565,143.000000 474.580994,142.634644 
	C478.390320,139.926086 474.792694,137.437759 473.963989,135.562866 
	C465.940582,117.410324 457.648499,99.376556 449.584229,81.641090 
	C452.269684,79.703789 455.151154,77.899223 457.717896,75.723366 
	C466.272095,68.471802 469.833923,58.599808 470.874115,47.927883 
	C471.848450,37.931839 470.511597,27.781374 465.371216,19.137529 
	C458.492798,7.570965 447.472656,2.149209 433.933380,1.957507 
	C431.618195,1.924726 429.310913,1.333334 427.000000,1.000000 
	C451.687561,1.000000 476.375122,1.000000 501.376404,1.399266 
	C499.903595,1.919662 498.117065,2.040792 496.369110,2.159309 
	C496.369110,7.528407 496.369110,12.742583 496.369110,18.333744 
	C508.474609,18.333744 520.211914,18.333744 532.306885,18.333744 
	C532.306885,59.782391 532.306885,100.835487 532.306885,141.659424 
	C538.757446,141.659424 544.831787,141.659424 551.258301,141.659424 
	C551.258301,100.266541 551.258301,59.213543 551.258301,17.770489 
	C563.366211,17.770489 575.104431,17.770489 586.686646,17.770489 
	C586.686646,12.301581 586.686646,7.230734 586.686646,2.000000 
	C581.559753,2.000000 576.740479,2.117898 571.930664,1.956702 
	C568.946472,1.856688 565.976379,1.333333 563.000000,1.000000 
z"/>
<path fill="#FFFFFF" opacity="1.000000" stroke="none" 
	d="
M459.000000,143.000000 
	C421.979095,143.000000 384.958221,143.000000 347.614563,142.606155 
	C347.855865,141.744904 348.898376,141.289246 348.910217,140.808273 
	C349.030914,135.895096 348.984039,130.977814 348.984039,125.701065 
	C329.229004,125.701065 310.163452,125.701065 291.337769,125.701065 
	C291.337769,109.244156 291.337769,93.178169 291.337769,76.729355 
	C307.742004,76.729355 323.810364,76.729355 339.667480,76.729355 
	C339.667480,71.261017 339.667480,66.188232 339.667480,60.739853 
	C323.269196,60.739853 307.201447,60.739853 291.320740,60.739853 
	C291.320740,46.279942 291.320740,32.213261 291.320740,17.765240 
	C310.372528,17.765240 329.105591,17.765240 347.686462,17.765240 
	C347.686462,12.301342 347.686462,7.230440 347.686462,2.000000 
	C341.892609,2.000000 336.408447,2.104481 330.931183,1.954944 
	C328.280762,1.882583 325.643311,1.333333 323.000000,1.000000 
	C345.020905,1.000000 367.041779,1.000000 389.394989,1.405158 
	C389.484863,3.219258 389.031769,4.628021 389.030579,6.037165 
	C388.993286,50.167320 388.998718,94.297508 389.007507,138.427689 
	C389.007721,139.536133 389.118805,140.644562 389.177338,141.737091 
	C395.598450,141.737091 401.666809,141.737091 408.097076,141.737091 
	C408.097076,100.426819 408.097076,59.377861 408.097076,18.000816 
	C416.916351,18.000816 425.409454,17.544971 433.812561,18.215904 
	C437.380188,18.500755 441.275208,20.517281 444.122040,22.846207 
	C451.175049,28.616148 452.328247,36.802673 452.038208,45.433838 
	C451.629181,57.604748 445.843994,65.594795 434.739624,68.548172 
	C430.473419,69.682838 425.652771,68.733047 421.334595,68.733047 
	C421.334595,74.781296 421.334595,79.865494 421.334595,85.144814 
	C426.808350,84.871696 431.556152,83.992645 434.200439,90.937828 
	C439.950317,106.039658 446.695129,120.770103 453.307007,135.529724 
	C454.553253,138.311646 457.069702,140.524536 459.000000,143.000000 
z"/>
<path fill="#FFFFFF" opacity="1.000000" stroke="none" 
	d="
M179.000000,143.000000 
	C149.979111,143.000000 120.958214,143.000000 91.614716,142.606018 
	C91.861404,140.579010 92.924538,138.946991 92.927940,137.312775 
	C93.018562,93.844788 93.000000,50.376575 93.000000,6.908401 
	C93.000000,5.320466 93.000000,3.732532 93.000000,2.321493 
	C86.615044,2.321493 80.875641,2.321493 74.764946,2.321493 
	C74.764946,22.039150 74.764946,41.437256 74.764946,61.219349 
	C60.977055,61.219349 47.573845,61.219349 34.307049,61.219349 
	C34.307049,66.686005 34.307049,71.756462 34.307049,77.210678 
	C48.013519,77.210678 61.416302,77.210678 75.000000,77.210678 
	C75.000000,99.401855 75.000000,121.200928 75.000000,143.000000 
	C56.312439,143.000000 37.624878,143.000000 18.614710,142.606033 
	C18.861403,140.745850 19.925192,139.280609 19.928141,137.813263 
	C20.016499,93.852615 20.002354,49.891777 19.988085,5.930969 
	C19.987675,4.667213 19.810873,3.403515 19.705858,2.000000 
	C17.559183,2.000000 15.734810,2.105895 13.927031,1.977727 
	C10.279913,1.719156 6.641817,1.333333 3.000000,1.000000 
	C48.687561,1.000000 94.375122,1.000000 140.531342,1.468657 
	C141.000000,33.682705 140.957520,65.428207 141.044693,97.173363 
	C141.058136,102.069214 141.210297,107.046860 142.086014,111.842850 
	C144.780594,126.600281 154.645508,138.372391 170.361343,141.027771 
	C173.268967,141.519043 176.121857,142.334290 179.000000,143.000000 
z"/>
<path fill="#FFFFFF" opacity="1.000000" stroke="none" 
	d="
M275.000000,143.000000 
	C245.979111,143.000000 216.958206,143.000000 187.624802,142.600006 
	C194.844040,142.117294 202.039032,140.800919 208.640930,136.874374 
	C221.808121,129.043030 226.957428,116.974228 226.982101,102.260429 
	C227.038696,68.507042 227.000000,34.753487 227.000000,1.000000 
	C249.020889,1.000000 271.041779,1.000000 293.363586,1.408443 
	C286.893860,1.816887 280.123230,1.816887 273.857727,1.816887 
	C273.259644,2.560430 273.070526,2.685704 273.070435,2.811105 
	C273.038452,48.258911 273.003021,93.706757 273.084045,139.154388 
	C273.086334,140.437408 274.333374,141.718185 275.000000,143.000000 
z"/>
<path fill="#020303" opacity="1.000000" stroke="none" 
	d="
M459.466125,143.000000 
	C457.069702,140.524536 454.553253,138.311646 453.307007,135.529724 
	C446.695129,120.770103 439.950317,106.039658 434.200439,90.937828 
	C431.556152,83.992645 426.808350,84.871696 421.334595,85.144814 
	C421.334595,79.865494 421.334595,74.781296 421.334595,68.733047 
	C425.652771,68.733047 430.473419,69.682838 434.739624,68.548172 
	C445.843994,65.594795 451.629181,57.604748 452.038208,45.433838 
	C452.328247,36.802673 451.175049,28.616148 444.122040,22.846207 
	C441.275208,20.517281 437.380188,18.500755 433.812561,18.215904 
	C425.409454,17.544971 416.916351,18.000816 408.097076,18.000816 
	C408.097076,59.377861 408.097076,100.426819 408.097076,141.737091 
	C401.666809,141.737091 395.598450,141.737091 389.177338,141.737091 
	C389.118805,140.644562 389.007721,139.536133 389.007507,138.427689 
	C388.998718,94.297508 388.993286,50.167320 389.030579,6.037165 
	C389.031769,4.628021 389.484863,3.219258 389.863647,1.405158 
	C402.020905,1.000000 414.041779,1.000000 426.531342,1.000000 
	C429.310913,1.333334 431.618195,1.924726 433.933380,1.957507 
	C447.472656,2.149209 458.492798,7.570965 465.371216,19.137529 
	C470.511597,27.781374 471.848450,37.931839 470.874115,47.927883 
	C469.833923,58.599808 466.272095,68.471802 457.717896,75.723366 
	C455.151154,77.899223 452.269684,79.703789 449.584229,81.641090 
	C457.648499,99.376556 465.940582,117.410324 473.963989,135.562866 
	C474.792694,137.437759 478.390320,139.926086 474.112335,142.634644 
	C469.310760,143.000000 464.621490,143.000000 459.466125,143.000000 
z"/>
<path fill="#FFFFFF" opacity="1.000000" stroke="none" 
	d="
M159.000000,1.000000 
	C175.354233,1.000000 191.708450,1.000000 208.531342,1.468657 
	C209.000000,27.070799 209.093018,52.204800 208.954285,77.337517 
	C208.898727,87.403969 208.761749,97.506165 207.861328,107.520103 
	C207.165207,115.261902 203.420547,121.759903 195.662781,124.678818 
	C189.023376,127.176941 182.005951,127.178284 175.175293,125.599007 
	C169.269302,124.233505 164.344360,120.901001 162.473495,114.840736 
	C160.872375,109.654282 159.200821,104.212852 159.151245,98.869431 
	C158.848602,66.248627 159.000000,33.623611 159.000000,1.000000 
z"/>
<path fill="#020303" opacity="1.000000" stroke="none" 
	d="
M158.532059,1.000000 
	C159.000000,33.623611 158.848602,66.248627 159.151245,98.869431 
	C159.200821,104.212852 160.872375,109.654282 162.473495,114.840736 
	C164.344360,120.901001 169.269302,124.233505 175.175293,125.599007 
	C182.005951,127.178284 189.023376,127.176941 195.662781,124.678818 
	C203.420547,121.759903 207.165207,115.261902 207.861328,107.520103 
	C208.761749,97.506165 208.898727,87.403969 208.954285,77.337517 
	C209.093018,52.204800 209.000000,27.070799 209.000000,1.468657 
	C214.688034,1.000000 220.376083,1.000000 226.532059,1.000000 
	C227.000000,34.753487 227.038696,68.507042 226.982101,102.260429 
	C226.957428,116.974228 221.808121,129.043030 208.640930,136.874374 
	C202.039032,140.800919 194.844040,142.117294 187.156143,142.600006 
	C184.629440,143.000000 182.258896,143.000000 179.444168,143.000000 
	C176.121857,142.334290 173.268967,141.519043 170.361343,141.027771 
	C154.645508,138.372391 144.780594,126.600281 142.086014,111.842850 
	C141.210297,107.046860 141.058136,102.069214 141.044693,97.173363 
	C140.957520,65.428207 141.000000,33.682705 141.000000,1.468657 
	C146.688034,1.000000 152.376083,1.000000 158.532059,1.000000 
z"/>
<path fill="#020303" opacity="1.000000" stroke="none" 
	d="
M275.468628,143.000000 
	C274.333374,141.718185 273.086334,140.437408 273.084045,139.154388 
	C273.003021,93.706757 273.038452,48.258911 273.070435,2.811105 
	C273.070526,2.685704 273.259644,2.560430 273.857727,1.816887 
	C280.123230,1.816887 286.893860,1.816887 293.832245,1.408443 
	C303.354218,1.000000 312.708466,1.000000 322.531342,1.000000 
	C325.643311,1.333333 328.280762,1.882583 330.931183,1.954944 
	C336.408447,2.104481 341.892609,2.000000 347.686462,2.000000 
	C347.686462,7.230440 347.686462,12.301342 347.686462,17.765240 
	C329.105591,17.765240 310.372528,17.765240 291.320740,17.765240 
	C291.320740,32.213261 291.320740,46.279942 291.320740,60.739853 
	C307.201447,60.739853 323.269196,60.739853 339.667480,60.739853 
	C339.667480,66.188232 339.667480,71.261017 339.667480,76.729355 
	C323.810364,76.729355 307.742004,76.729355 291.337769,76.729355 
	C291.337769,93.178169 291.337769,109.244156 291.337769,125.701065 
	C310.163452,125.701065 329.229004,125.701065 348.984039,125.701065 
	C348.984039,130.977814 349.030914,135.895096 348.910217,140.808273 
	C348.898376,141.289246 347.855865,141.744904 347.145874,142.606155 
	C339.312408,143.000000 331.624847,143.000000 323.300842,142.591522 
	C317.557007,142.122040 312.446930,141.938522 307.343262,142.048782 
	C304.556610,142.108978 301.780731,142.666687 299.000000,143.000000 
	C291.312408,143.000000 283.624847,143.000000 275.468628,143.000000 
z"/>
<path fill="#020303" opacity="1.000000" stroke="none" 
	d="
M611.428467,143.000000 
	C609.997559,142.408203 608.995178,141.816406 607.760437,141.087463 
	C622.646240,94.844711 637.528198,48.613930 652.533447,2.000001 
	C656.215698,2.000001 660.222839,2.288311 664.168213,1.918114 
	C668.037537,1.555051 669.327698,3.182680 670.428589,6.703226 
	C677.221985,28.429148 684.310669,50.062809 691.312195,71.723595 
	C698.018616,92.471458 704.744995,113.212914 711.435547,133.965866 
	C711.829224,135.187042 711.982605,136.485687 712.623901,137.874146 
	C713.000000,139.066666 713.000000,140.133347 712.531982,141.600220 
	C707.901428,142.000290 703.712463,141.709366 699.584045,142.084839 
	C695.741760,142.434280 694.008545,140.913208 693.019836,137.370483 
	C690.013367,126.598083 686.791687,115.885765 683.558411,104.823624 
	C673.045166,104.823624 662.631592,104.823624 652.281189,104.823624 
	C652.281189,99.363594 652.281189,94.294617 652.281189,89.056381 
	C661.192139,89.056381 669.824463,89.056381 678.743408,89.056381 
	C672.856262,69.538239 667.043030,50.264996 661.229797,30.991749 
	C660.781921,31.051849 660.334045,31.111950 659.886230,31.172050 
	C648.835327,68.090942 637.784485,105.009827 626.876282,141.452087 
	C623.232361,142.023209 620.116150,142.511597 617.000000,143.000000 
	C615.285645,143.000000 613.571289,143.000000 611.428467,143.000000 
z"/>
<path fill="#020303" opacity="1.000000" stroke="none" 
	d="
M562.535339,1.000000 
	C565.976379,1.333333 568.946472,1.856688 571.930664,1.956702 
	C576.740479,2.117898 581.559753,2.000000 586.686646,2.000000 
	C586.686646,7.230734 586.686646,12.301581 586.686646,17.770489 
	C575.104431,17.770489 563.366211,17.770489 551.258301,17.770489 
	C551.258301,59.213543 551.258301,100.266541 551.258301,141.659424 
	C544.831787,141.659424 538.757446,141.659424 532.306885,141.659424 
	C532.306885,100.835487 532.306885,59.782391 532.306885,18.333744 
	C520.211914,18.333744 508.474609,18.333744 496.369110,18.333744 
	C496.369110,12.742583 496.369110,7.528407 496.369110,2.159309 
	C498.117065,2.040792 499.903595,1.919662 501.845032,1.399266 
	C509.354248,1.000000 516.708496,1.000000 524.699097,1.408458 
	C530.442932,1.877944 535.552979,2.061472 540.656738,1.951219 
	C543.443359,1.891020 546.219238,1.333329 549.000000,0.999998 
	C553.356873,1.000000 557.713806,1.000000 562.535339,1.000000 
z"/>
<path fill="#FFFFFF" opacity="1.000000" stroke="none" 
	d="
M617.468628,143.000000 
	C620.116150,142.511597 623.232361,142.023209 626.876282,141.452087 
	C637.784485,105.009827 648.835327,68.090942 659.886230,31.172050 
	C660.334045,31.111950 660.781921,31.051849 661.229797,30.991749 
	C667.043030,50.264996 672.856262,69.538239 678.743408,89.056381 
	C669.824463,89.056381 661.192139,89.056381 652.281189,89.056381 
	C652.281189,94.294617 652.281189,99.363594 652.281189,104.823624 
	C662.631592,104.823624 673.045166,104.823624 683.558411,104.823624 
	C686.791687,115.885765 690.013367,126.598083 693.019836,137.370483 
	C694.008545,140.913208 695.741760,142.434280 699.584045,142.084839 
	C703.712463,141.709366 707.901428,142.000290 712.531982,142.000214 
	C711.674194,142.333328 710.348999,142.955246 709.022583,142.957642 
	C678.660889,143.012604 648.299072,143.000000 617.468628,143.000000 
z"/>
<path fill="#020303" opacity="1.000000" stroke="none" 
	d="
M75.466858,143.000000 
	C75.000000,121.200928 75.000000,99.401855 75.000000,77.210678 
	C61.416302,77.210678 48.013519,77.210678 34.307049,77.210678 
	C34.307049,71.756462 34.307049,66.686005 34.307049,61.219349 
	C47.573845,61.219349 60.977055,61.219349 74.764946,61.219349 
	C74.764946,41.437256 74.764946,22.039150 74.764946,2.321493 
	C80.875641,2.321493 86.615044,2.321493 93.000000,2.321493 
	C93.000000,3.732532 93.000000,5.320466 93.000000,6.908401 
	C93.000000,50.376575 93.018562,93.844788 92.927940,137.312775 
	C92.924538,138.946991 91.861404,140.579010 91.146057,142.606018 
	C85.977905,143.000000 80.955818,143.000000 75.466858,143.000000 
z"/>
<path fill="#020303" opacity="1.000000" stroke="none" 
	d="
M2.500000,1.000000 
	C6.641817,1.333333 10.279913,1.719156 13.927031,1.977727 
	C15.734810,2.105895 17.559183,2.000000 19.705858,2.000000 
	C19.810873,3.403515 19.987675,4.667213 19.988085,5.930969 
	C20.002354,49.891777 20.016499,93.852615 19.928141,137.813263 
	C19.925192,139.280609 18.861403,140.745850 18.146053,142.606033 
	C12.350986,143.000000 6.701972,143.000000 1.000000,143.000000 
	C1.000000,96.496376 0.994808,49.992725 1.041633,3.489125 
	C1.042469,2.659096 1.666667,1.829694 2.500000,1.000000 
z"/>
<path fill="#FFFFFF" opacity="1.000000" stroke="none" 
	d="
M548.531372,0.999998 
	C546.219238,1.333329 543.443359,1.891020 540.656738,1.951219 
	C535.552979,2.061472 530.442932,1.877944 525.167725,1.408458 
	C532.687561,1.000000 540.375183,1.000000 548.531372,0.999998 
z"/>
<path fill="#FFFFFF" opacity="1.000000" stroke="none" 
	d="
M299.468628,143.000000 
	C301.780731,142.666687 304.556610,142.108978 307.343262,142.048782 
	C312.446930,141.938522 317.557007,142.122040 322.832214,142.591522 
	C315.312408,143.000000 307.624847,143.000000 299.468628,143.000000 
z"/>
</svg>